<svg xmlns="http://www.w3.org/2000/svg" width="32" height="32" style="shape-rendering:geometricPrecision;text-rendering:geometricPrecision;image-rendering:optimizeQuality;fill-rule:evenodd;clip-rule:evenodd"><path fill="#fdfefe" d="M8.5-.5h14a57.456 57.456 0 0 1 9 9v14a57.458 57.458 0 0 1-9 9h-14a57.456 57.456 0 0 1-9-9v-14a57.453 57.453 0 0 1 9-9Z" style="opacity:.916"/><path fill="#addbe4" d="M14.5 8.5c1.277 1.194 1.944 2.86 2 5l-1 5a25.87 25.87 0 0 1-1-10Z" style="opacity:1"/><path fill="#9ed5df" d="M22.5 10.5c.543.06.876.393 1 1-2.528 1.316-2.528 2.483 0 3.5-1.965.624-3.631.124-5-1.5a171.62 171.62 0 0 0 4-3Z" style="opacity:1"/><path fill="#8390c3" d="M7.5 14.5c1.709 4.529 5.042 7.029 10 7.5-6.048 1.118-9.382-1.382-10-7.5Z" style="opacity:1"/></svg>
